<svg width="40" height="40" viewBox="0 0 40 40" fill="none" xmlns="http://www.w3.org/2000/svg">
<g clip-path="url(#clip0_14400_31386)">
<path d="M37.6211 9.46381L24.7406 11.0994C23.8214 11.2162 23.1323 11.9982 23.1323 12.9248V26.1243C23.1323 27.0455 23.8135 27.8247 24.7264 27.9479L37.6068 29.6857C38.7108 29.8347 39.6929 28.9762 39.6929 27.8622V11.2892C39.6929 10.181 38.7205 9.3242 37.6211 9.46381Z" fill="#161616"/>
<path d="M29.5268 0.365542L1.53146 5.12823C0.64701 5.27869 0 6.04507 0 6.94223V32.9943C0 33.8999 0.658926 34.6709 1.55347 34.8119L29.5488 39.2261C30.6655 39.4022 31.6754 38.539 31.6754 37.4085V31.741C31.6754 31.4777 31.4806 31.255 31.2196 31.22L22.4933 30.0494C21.5798 29.9268 20.8979 29.1473 20.8979 28.2257V19.7807V11.2786C20.8979 10.3819 21.5443 9.6157 22.4283 9.46478L31.2382 7.96065C31.4907 7.91753 31.6754 7.69863 31.6754 7.44242V2.17954C31.6754 1.03999 30.6502 0.174421 29.5268 0.365542Z" fill="#1252D3"/>
<path d="M8.09648 22.897C8.1806 23.591 8.39089 24.0957 8.66427 24.4532C9.16898 25.063 10.0522 25.3785 11.2929 25.3785C12.05 25.3785 12.6598 25.2943 13.1225 25.1261C14.0057 24.8107 14.4473 24.2218 14.4473 23.3807C14.4473 22.876 14.237 22.4974 13.7954 22.2241C13.3538 21.9507 12.6598 21.7194 11.7135 21.5091L10.1153 21.1516C8.55913 20.7941 7.4656 20.4155 6.85575 19.9949C5.84634 19.2799 5.32061 18.2075 5.32061 16.7144C5.32061 15.3475 5.82531 14.2329 6.81369 13.3286C7.78104 12.4454 9.23207 11.9828 11.1457 11.9828C12.744 11.9828 14.1109 12.4034 15.2254 13.2445C16.361 14.1067 16.9498 15.3264 16.9919 16.9457H13.9637C13.9006 16.0204 13.501 15.3685 12.765 14.99C12.2813 14.7376 11.6504 14.6114 10.9354 14.6114C10.1153 14.6114 9.46339 14.7797 8.97971 15.1161C8.49604 15.4316 8.24369 15.8942 8.24369 16.483C8.24369 17.0298 8.49604 17.4294 8.97971 17.7027C9.27412 17.871 9.92603 18.0813 10.9354 18.3336L13.5431 18.9435C14.6997 19.2379 15.5619 19.5954 16.1297 20.058C17.0339 20.752 17.4966 21.8035 17.4966 23.1493C17.4966 24.5163 16.9709 25.6729 15.9194 26.5771C14.8469 27.5024 13.3538 27.9651 11.4191 27.9651C9.46339 27.9651 7.90722 27.5024 6.77163 26.5982C5.63605 25.7149 5.08929 24.4742 5.08929 22.897H8.09648Z" fill="white"/>
<path d="M33.007 22.5595H31.7606L31.4088 21.4277H29.3747L29 22.5595H27.7918L29.757 17.0536H31.057L33.007 22.5595ZM30.3994 18.3154L29.6882 20.4795H31.0876L30.3994 18.3154ZM33.6087 17.0536H34.7558V22.5595H33.6087V17.0536Z" fill="white"/>
</g>
<defs>
<clipPath id="clip0_14400_31386">
<rect width="40" height="40" fill="white"/>
</clipPath>
</defs>
</svg>
