<svg width="68" height="68" viewBox="0 0 68 68" fill="none" xmlns="http://www.w3.org/2000/svg">
<rect width="68" height="68" rx="6" fill="#161616"/>
<path d="M17.5149 41V39.2869L22.0597 34.8317C22.4943 34.3928 22.8565 34.0028 23.1463 33.6619C23.4361 33.321 23.6534 32.9908 23.7983 32.6712C23.9432 32.3516 24.0156 32.0107 24.0156 31.6484C24.0156 31.2351 23.9219 30.8814 23.7344 30.5874C23.5469 30.2891 23.2891 30.0589 22.9609 29.897C22.6328 29.7351 22.2599 29.6541 21.8423 29.6541C21.4119 29.6541 21.0348 29.7436 20.7109 29.9226C20.3871 30.0973 20.1357 30.3466 19.9567 30.6705C19.782 30.9943 19.6946 31.38 19.6946 31.8274H17.4382C17.4382 30.9964 17.6278 30.2741 18.0071 29.6605C18.3864 29.0469 18.9084 28.5717 19.5732 28.2351C20.2422 27.8984 21.0092 27.7301 21.8743 27.7301C22.7521 27.7301 23.5234 27.8942 24.1882 28.2223C24.853 28.5504 25.3686 29 25.7351 29.571C26.1058 30.142 26.2912 30.794 26.2912 31.527C26.2912 32.017 26.1974 32.4986 26.0099 32.9716C25.8224 33.4446 25.4922 33.9687 25.0192 34.544C24.5504 35.1193 23.892 35.8161 23.044 36.6342L20.7876 38.929V39.0185H26.4893V41H17.5149ZM33.5334 41.2493C32.4808 41.2493 31.5774 40.983 30.8232 40.4503C30.0732 39.9134 29.4957 39.1399 29.0909 38.13C28.6903 37.1158 28.4901 35.8949 28.4901 34.4673C28.4943 33.0398 28.6967 31.8253 29.0973 30.8239C29.5021 29.8182 30.0795 29.0511 30.8295 28.5227C31.5838 27.9943 32.4851 27.7301 33.5334 27.7301C34.5817 27.7301 35.483 27.9943 36.2372 28.5227C36.9915 29.0511 37.5689 29.8182 37.9695 30.8239C38.3743 31.8295 38.5767 33.044 38.5767 34.4673C38.5767 35.8991 38.3743 37.1222 37.9695 38.1364C37.5689 39.1463 36.9915 39.9176 36.2372 40.4503C35.4872 40.983 34.5859 41.2493 33.5334 41.2493ZM33.5334 39.2486C34.3516 39.2486 34.9972 38.8459 35.4702 38.0405C35.9474 37.2308 36.1861 36.0398 36.1861 34.4673C36.1861 33.4276 36.0774 32.554 35.8601 31.8466C35.6428 31.1392 35.3359 30.6065 34.9396 30.2486C34.5433 29.8864 34.0746 29.7053 33.5334 29.7053C32.7195 29.7053 32.076 30.1101 31.603 30.9197C31.13 31.7251 30.8913 32.9077 30.8871 34.4673C30.8828 35.5114 30.9872 36.3892 31.2003 37.1009C31.4176 37.8125 31.7244 38.3494 32.1207 38.7116C32.517 39.0696 32.9879 39.2486 33.5334 39.2486ZM44.5868 38.9034V30.0568H46.5939V38.9034H44.5868ZM41.1671 35.4837V33.4766H50.0137V35.4837H41.1671Z" fill="white"/>
</svg>
