<svg width="11" height="11" viewBox="0 0 11 11" fill="none" xmlns="http://www.w3.org/2000/svg">
<path d="M1.0194 9.99703C0.786156 10.2303 0.407999 10.2303 0.174759 9.99703C-0.0584809 9.76379 -0.0584809 9.38564 0.174759 9.1524L4.24114 5.08602L0.174759 1.01964C-0.0584804 0.786401 -0.0584804 0.408244 0.174759 0.175004C0.407999 -0.0582358 0.786156 -0.058236 1.0194 0.175004L5.08577 4.24138L9.15215 0.175004C9.38539 -0.0582356 9.76355 -0.0582356 9.99679 0.175004C10.23 0.408244 10.23 0.786402 9.99679 1.01964L5.93041 5.08602L9.99679 9.1524C10.23 9.38564 10.23 9.76379 9.99679 9.99703C9.76355 10.2303 9.38539 10.2303 9.15215 9.99703L5.08577 5.93066L1.0194 9.99703Z" fill="#161616"/>
</svg>
