<svg width="14" height="14" viewBox="0 0 14 14" fill="none" xmlns="http://www.w3.org/2000/svg">
<path d="M6.64 9.60725C6.52933 9.60725 6.42558 9.5901 6.32875 9.55579C6.23192 9.52149 6.142 9.46256 6.059 9.379L3.071 6.391C2.905 6.225 2.82532 6.03134 2.83196 5.81C2.8386 5.58867 2.91828 5.395 3.071 5.229C3.237 5.063 3.43426 4.97668 3.66279 4.97004C3.89132 4.9634 4.0883 5.04281 4.25375 5.20825L5.81 6.7645V0.830003C5.81 0.594836 5.88968 0.39785 6.04904 0.239043C6.2084 0.0802363 6.40539 0.000556195 6.64 2.86207e-06C6.87461 -0.000550471 7.07188 0.0791296 7.23179 0.239043C7.3917 0.398956 7.47111 0.595943 7.47 0.830003V6.7645L9.02625 5.20825C9.19225 5.04225 9.38951 4.96257 9.61804 4.96921C9.84657 4.97585 10.0436 5.06245 10.209 5.229C10.3612 5.395 10.4408 5.58867 10.448 5.81C10.4552 6.03134 10.3756 6.225 10.209 6.391L7.221 9.379C7.138 9.462 7.04808 9.52093 6.95125 9.55579C6.85442 9.59065 6.75067 9.60781 6.64 9.60725ZM1.66 13.28C1.2035 13.28 0.812846 13.1176 0.48804 12.7928C0.163233 12.468 0.000553333 12.0771 0 11.62V9.96C0 9.72484 0.0796801 9.52785 0.23904 9.36904C0.3984 9.21024 0.595387 9.13056 0.83 9.13C1.06461 9.12945 1.26188 9.20913 1.42179 9.36904C1.5817 9.52896 1.66111 9.72594 1.66 9.96V11.62H11.62V9.96C11.62 9.72484 11.6997 9.52785 11.859 9.36904C12.0184 9.21024 12.2154 9.13056 12.45 9.13C12.6846 9.12945 12.8819 9.20913 13.0418 9.36904C13.2017 9.52896 13.2811 9.72594 13.28 9.96V11.62C13.28 12.0765 13.1176 12.4674 12.7928 12.7928C12.468 13.1182 12.0771 13.2806 11.62 13.28H1.66Z" fill="white"/>
</svg>
