<svg width="16" height="16" viewBox="0 0 16 16" fill="none" xmlns="http://www.w3.org/2000/svg">
<path d="M14.6785 0.511228C13.9969 -0.170409 12.8951 -0.170409 12.2134 0.511228L11.454 1.27068L14.5011 4.31782L15.2606 3.55837C15.9422 2.87673 15.9422 1.7749 15.2606 1.09327L14.6785 0.511228ZM5.36595 7.35873C5.17609 7.54859 5.0298 7.78203 4.94576 8.04037L4.02446 10.8043C3.9342 11.0719 4.00579 11.3676 4.20499 11.5699C4.40419 11.7723 4.69987 11.8407 4.97066 11.7505L7.73456 10.8292C7.98979 10.7451 8.22322 10.5988 8.4162 10.409L13.446 5.37295L10.3989 2.32582L5.36595 7.35873ZM2.988 1.82782C1.33837 1.82782 0 3.16619 0 4.81582V12.7838C0 14.4334 1.33837 15.7718 2.988 15.7718H10.956C12.6056 15.7718 13.944 14.4334 13.944 12.7838V9.79582C13.944 9.2449 13.4989 8.79982 12.948 8.79982C12.3971 8.79982 11.952 9.2449 11.952 9.79582V12.7838C11.952 13.3347 11.5069 13.7798 10.956 13.7798H2.988C2.43709 13.7798 1.992 13.3347 1.992 12.7838V4.81582C1.992 4.2649 2.43709 3.81982 2.988 3.81982H5.976C6.52691 3.81982 6.972 3.37473 6.972 2.82382C6.972 2.2729 6.52691 1.82782 5.976 1.82782H2.988Z" fill="white"/>
</svg>
