<svg width="17" height="17" viewBox="0 0 17 17" fill="none" xmlns="http://www.w3.org/2000/svg">
<path d="M0 13.7801V12.4519C0 12.2318 0.0874596 12.0206 0.243139 11.8649C0.398818 11.7093 0.609964 11.6218 0.830128 11.6218C1.05029 11.6218 1.26144 11.7093 1.41712 11.8649C1.5728 12.0206 1.66026 12.2318 1.66026 12.4519V13.7801C1.66026 14.0884 1.7827 14.384 2.00065 14.6019C2.2186 14.8199 2.51421 14.9423 2.82244 14.9423H4.15064C4.3708 14.9423 4.58195 15.0298 4.73763 15.1854C4.89331 15.3411 4.98077 15.5523 4.98077 15.7724C4.98077 15.9926 4.89331 16.2037 4.73763 16.3594C4.58195 16.5151 4.3708 16.6026 4.15064 16.6026H2.82244C2.07388 16.6026 1.35598 16.3052 0.826672 15.7759C0.297363 15.2466 0 14.5287 0 13.7801ZM14.9423 13.7801V12.4519C14.9423 12.2318 15.0298 12.0206 15.1854 11.8649C15.3411 11.7093 15.5523 11.6218 15.7724 11.6218C15.9926 11.6218 16.2037 11.7093 16.3594 11.8649C16.5151 12.0206 16.6026 12.2318 16.6026 12.4519V13.7801C16.6026 14.5287 16.3052 15.2466 15.7759 15.7759C15.2466 16.3052 14.5287 16.6026 13.7801 16.6026H12.4519C12.2318 16.6026 12.0206 16.5151 11.8649 16.3594C11.7093 16.2037 11.6218 15.9926 11.6218 15.7724C11.6218 15.5523 11.7093 15.3411 11.8649 15.1854C12.0206 15.0298 12.2318 14.9423 12.4519 14.9423H13.7801C14.0884 14.9423 14.384 14.8199 14.6019 14.6019C14.8199 14.384 14.9423 14.0884 14.9423 13.7801ZM0 4.15064V2.82244C0 2.07388 0.297363 1.35598 0.826672 0.826672C1.35598 0.297363 2.07388 0 2.82244 0H4.15064C4.3708 0 4.58195 0.0874596 4.73763 0.243139C4.89331 0.398818 4.98077 0.609964 4.98077 0.830128C4.98077 1.05029 4.89331 1.26144 4.73763 1.41712C4.58195 1.5728 4.3708 1.66026 4.15064 1.66026H2.82244C2.51421 1.66026 2.2186 1.7827 2.00065 2.00065C1.7827 2.2186 1.66026 2.51421 1.66026 2.82244V4.15064C1.66026 4.3708 1.5728 4.58195 1.41712 4.73763C1.26144 4.89331 1.05029 4.98077 0.830128 4.98077C0.609964 4.98077 0.398818 4.89331 0.243139 4.73763C0.0874596 4.58195 0 4.3708 0 4.15064ZM14.9423 4.15064V2.82244C14.9423 2.51421 14.8199 2.2186 14.6019 2.00065C14.384 1.7827 14.0884 1.66026 13.7801 1.66026H12.4519C12.2318 1.66026 12.0206 1.5728 11.8649 1.41712C11.7093 1.26144 11.6218 1.05029 11.6218 0.830128C11.6218 0.609964 11.7093 0.398818 11.8649 0.243139C12.0206 0.0874596 12.2318 0 12.4519 0H13.7801C14.5287 0 15.2466 0.297363 15.7759 0.826672C16.3052 1.35598 16.6026 2.07388 16.6026 2.82244V4.15064C16.6026 4.3708 16.5151 4.58195 16.3594 4.73763C16.2037 4.89331 15.9926 4.98077 15.7724 4.98077C15.5523 4.98077 15.3411 4.89331 15.1854 4.73763C15.0298 4.58195 14.9423 4.3708 14.9423 4.15064ZM10.7917 8.50881C10.9304 8.50892 11.0652 8.55538 11.1745 8.6408C11.2838 8.72622 11.3615 8.84572 11.3952 8.98033L11.6367 9.94577L12.603 10.1873C12.7376 10.2211 12.8571 10.2988 12.9425 10.4082C13.0279 10.5177 13.0742 10.6525 13.0742 10.7913C13.0742 10.93 13.0279 11.0648 12.9425 11.1743C12.8571 11.2837 12.7376 11.3614 12.603 11.3952L11.6367 11.6367L11.396 12.603C11.3626 12.738 11.2849 12.8579 11.1754 12.9436C11.0658 13.0293 10.9307 13.0759 10.7917 13.0759C10.6526 13.0759 10.5175 13.0293 10.408 12.9436C10.2985 12.8579 10.2208 12.738 10.1873 12.603L9.9466 11.6367L8.98033 11.396C8.84533 11.3626 8.72541 11.2849 8.6397 11.1754C8.55399 11.0658 8.50742 10.9307 8.50742 10.7917C8.50742 10.6526 8.55399 10.5175 8.6397 10.408C8.72541 10.2985 8.84533 10.2208 8.98033 10.1873L9.94577 9.9466L10.1873 8.98033C10.221 8.84558 10.2988 8.72598 10.4083 8.64054C10.5178 8.55511 10.6528 8.50874 10.7917 8.50881ZM5.0671 3.74139C5.31448 3.01835 6.38286 3.04242 6.57628 3.81361L6.82199 4.7998L7.80819 5.04635C8.60511 5.24558 8.60511 6.37704 7.80819 6.57628L6.82199 6.82199L6.57628 7.80819C6.37704 8.60511 5.24558 8.60511 5.04635 7.80819L4.7998 6.82199L3.81361 6.57628C3.01669 6.37704 3.01669 5.24558 3.81361 5.04635L4.7998 4.7998L5.04635 3.81361L5.0671 3.74139ZM5.8109 5.64238C5.76312 5.70637 5.70637 5.76312 5.64238 5.8109C5.70637 5.85867 5.76312 5.91543 5.8109 5.97941C5.85867 5.91543 5.91543 5.85867 5.97941 5.8109C5.91543 5.76312 5.85867 5.70637 5.8109 5.64238Z" fill="#1252D3"/>
</svg>
