<svg width="22" height="24" viewBox="0 0 22 24" fill="none" xmlns="http://www.w3.org/2000/svg">
<path d="M8.20215 4.50195C6.81889 4.61053 5.49888 5.12811 4.41016 5.98828C3.32154 6.84843 2.51255 8.01249 2.08691 9.33301C1.66129 10.6536 1.63808 12.0713 2.01953 13.4053C2.40099 14.7391 3.17025 15.9294 4.22949 16.8252C5.28891 17.7211 6.59093 18.2819 7.96973 18.4365C9.34852 18.5911 10.7421 18.3324 11.9736 17.6934C13.2051 17.0543 14.2193 16.064 14.8867 14.8477C15.5541 13.6312 15.8454 12.2434 15.7227 10.8613H17.4766C17.6283 12.9484 17.0239 15.0204 15.7734 16.6982L20.7324 21.6562C20.9449 21.8763 21.0622 22.1717 21.0596 22.4775C21.0568 22.7833 20.934 23.0758 20.7178 23.292C20.5016 23.5082 20.2091 23.631 19.9033 23.6338C19.5975 23.6364 19.3021 23.5191 19.082 23.3066L14.1445 18.3701C13.0652 19.2153 11.8025 19.7949 10.458 20.0625C9.11354 20.3301 7.72496 20.2786 6.4043 19.9111C5.08352 19.5435 3.86752 18.8701 2.85449 17.9463C1.84148 17.0225 1.05878 15.8741 0.571289 14.5928C0.0837976 13.3114 -0.0950061 11.9329 0.0478516 10.5693C0.190733 9.20586 0.652071 7.89468 1.39453 6.74219C2.13699 5.58983 3.1399 4.62827 4.32227 3.93457C5.50478 3.24079 6.83383 2.83391 8.20215 2.74805V4.50195ZM10.5938 7C10.72 7 10.823 7.10251 10.8232 7.22949C11.0331 8.28034 11.6457 8.78856 12.6973 9.10449C12.8249 9.10449 12.9268 9.20717 12.9268 9.33301C12.9267 9.46017 12.8249 9.56348 12.6973 9.56348C11.6458 9.77369 11.1386 10.3854 10.8232 11.4375C10.8232 11.5646 10.7201 11.666 10.5938 11.666C10.4676 11.6658 10.3643 11.5645 10.3643 11.4375C10.1544 10.3853 9.54088 9.87807 8.48926 9.56348C8.36309 9.56322 8.26075 9.46002 8.26074 9.33301C8.26074 9.20733 8.36308 9.10475 8.48926 9.10449C9.54208 8.89432 10.0489 8.28068 10.3643 7.22852C10.3643 7.10286 10.4676 7.00025 10.5938 7ZM14.9014 0C15.0267 0 15.1291 0.0864686 15.1602 0.202148C15.5961 2.32483 16.5349 3.37567 18.7119 3.81152C18.8617 3.81152 18.9851 3.93246 18.9854 4.08301C18.9854 4.23374 18.8629 4.35547 18.7119 4.35547C16.5894 4.79136 15.5969 5.77931 15.1621 7.95605C15.1464 8.01763 15.1115 8.07132 15.0645 8.10938C15.0173 8.14743 14.96 8.16758 14.9014 8.16602C14.8408 8.16757 14.7812 8.1461 14.7334 8.10547C14.6859 8.06491 14.653 8.00754 14.6396 7.94336C14.2037 5.81906 13.2682 4.79131 11.0908 4.35547C10.9409 4.35544 10.8184 4.23373 10.8184 4.08301C10.8186 3.93248 10.941 3.81155 11.0908 3.81152C13.2136 3.37568 14.2076 2.38213 14.6436 0.204102C14.6603 0.144019 14.6946 0.0915911 14.7412 0.0546875C14.7877 0.017837 14.8439 -0.00113882 14.9014 0Z" fill="#1252D3"/>
</svg>
